<?xml version="1.0" encoding="UTF-8" standalone="no"?>
<!DOCTYPE svg PUBLIC "-//W3C//DTD SVG 1.1//EN"
 "http://www.w3.org/Graphics/SVG/1.1/DTD/svg11.dtd">
<!-- Generated by graphviz version 2.36.0 (20140111.2315)
 -->
<!-- Title: structs Pages: 1 -->
<svg width="462pt" height="469pt"
 viewBox="0.00 0.00 462.00 469.00" xmlns="http://www.w3.org/2000/svg" xmlns:xlink="http://www.w3.org/1999/xlink">
<g id="graph0" class="graph" transform="scale(1 1) rotate(0) translate(4 465)">
<title>structs</title>
<polygon fill="white" stroke="none" points="-4,4 -4,-465 458,-465 458,4 -4,4"/>
<text text-anchor="middle" x="227" y="-7.8" font-family="Times,serif" font-size="14.00">Test JSON Editor</text>
<!-- xEditorEl -->
<g id="node1" class="node"><title>xEditorEl</title>
<polygon fill="none" stroke="black" points="0,-331 0,-377 108,-377 108,-331 0,-331"/>
<text text-anchor="middle" x="54" y="-361.8" font-family="Times,serif" font-size="14.00">EditorEl</text>
<polyline fill="none" stroke="black" points="0,-354 108,-354 "/>
<text text-anchor="middle" x="32.5" y="-338.8" font-family="Times,serif" font-size="14.00">selection</text>
<polyline fill="none" stroke="black" points="65,-331 65,-354 "/>
<text text-anchor="middle" x="86.5" y="-338.8" font-family="Times,serif" font-size="14.00">error</text>
</g>
<!-- xResumeEditor -->
<g id="node2" class="node"><title>xResumeEditor</title>
<polygon fill="none" stroke="black" points="137.5,-213.5 137.5,-282.5 338.5,-282.5 338.5,-213.5 137.5,-213.5"/>
<text text-anchor="middle" x="167.5" y="-267.3" font-family="Times,serif" font-size="14.00">element</text>
<polyline fill="none" stroke="black" points="197.5,-259.5 197.5,-282.5 "/>
<text text-anchor="middle" x="225.5" y="-267.3" font-family="Times,serif" font-size="14.00">options</text>
<polyline fill="none" stroke="black" points="253.5,-259.5 253.5,-282.5 "/>
<text text-anchor="middle" x="282.5" y="-267.3" font-family="Times,serif" font-size="14.00">schema</text>
<polyline fill="none" stroke="black" points="311.5,-259.5 311.5,-282.5 "/>
<text text-anchor="middle" x="325" y="-267.3" font-family="Times,serif" font-size="14.00">in</text>
<polyline fill="none" stroke="black" points="137.5,-259.5 338.5,-259.5 "/>
<text text-anchor="middle" x="238" y="-244.3" font-family="Times,serif" font-size="14.00">ResumeEditor</text>
<polyline fill="none" stroke="black" points="137.5,-236.5 338.5,-236.5 "/>
<text text-anchor="middle" x="238" y="-221.3" font-family="Times,serif" font-size="14.00">out</text>
</g>
<!-- xEditorEl&#45;&gt;xResumeEditor -->
<g id="edge1" class="edge"><title>xEditorEl:OUTPUT_selection&#45;&gt;xResumeEditor:INPUT_element</title>
<path fill="none" stroke="black" d="M32,-330C32,-284.48 85.7176,-309.118 123,-283 125.415,-281.308 126.741,-279.198 127.87,-277.221"/>
<polygon fill="black" stroke="black" points="130.185,-279.856 136,-271 125.931,-274.297 130.185,-279.856"/>
</g>
<!-- xLog -->
<g id="node7" class="node"><title>xLog</title>
<polygon fill="none" stroke="black" points="60,-225 60,-271 114,-271 114,-225 60,-225"/>
<text text-anchor="middle" x="87" y="-255.8" font-family="Times,serif" font-size="14.00">msg</text>
<polyline fill="none" stroke="black" points="60,-248 114,-248 "/>
<text text-anchor="middle" x="87" y="-232.8" font-family="Times,serif" font-size="14.00">Log</text>
</g>
<!-- xEditorEl&#45;&gt;xLog -->
<g id="edge6" class="edge"><title>xEditorEl:OUTPUT_error&#45;&gt;xLog:INPUT_msg</title>
<path fill="none" stroke="black" d="M87,-330C87,-308.049 87,-300.117 87,-282.328"/>
<polygon fill="black" stroke="black" points="90.5001,-282 87,-272 83.5001,-282 90.5001,-282"/>
</g>
<!-- xResumeView -->
<g id="node6" class="node"><title>xResumeView</title>
<polygon fill="none" stroke="black" points="193,-107.5 193,-176.5 283,-176.5 283,-107.5 193,-107.5"/>
<text text-anchor="middle" x="238" y="-161.3" font-family="Times,serif" font-size="14.00">vars</text>
<polyline fill="none" stroke="black" points="193,-153.5 283,-153.5 "/>
<text text-anchor="middle" x="238" y="-138.3" font-family="Times,serif" font-size="14.00">ResumeView</text>
<polyline fill="none" stroke="black" points="193,-130.5 283,-130.5 "/>
<text text-anchor="middle" x="238" y="-115.3" font-family="Times,serif" font-size="14.00">out</text>
</g>
<!-- xResumeEditor&#45;&gt;xResumeView -->
<g id="edge4" class="edge"><title>xResumeEditor:OUTPUT_out&#45;&gt;xResumeView:INPUT_vars</title>
<path fill="none" stroke="black" d="M238,-213C238,-201 238,-195.75 238,-187.125"/>
<polygon fill="black" stroke="black" points="241.5,-187 238,-177 234.5,-187 241.5,-187"/>
</g>
<!-- xOutputEl -->
<g id="node3" class="node"><title>xOutputEl</title>
<polygon fill="none" stroke="black" points="109,-119 109,-165 175,-165 175,-119 109,-119"/>
<text text-anchor="middle" x="142" y="-149.8" font-family="Times,serif" font-size="14.00">OutputEl</text>
<polyline fill="none" stroke="black" points="109,-142 175,-142 "/>
<text text-anchor="middle" x="142" y="-126.8" font-family="Times,serif" font-size="14.00">selection</text>
</g>
<!-- xUpdateResume -->
<g id="node4" class="node"><title>xUpdateResume</title>
<polygon fill="none" stroke="black" points="134,-24 134,-70 236,-70 236,-24 134,-24"/>
<text text-anchor="middle" x="164" y="-54.8" font-family="Times,serif" font-size="14.00">element</text>
<polyline fill="none" stroke="black" points="194,-47 194,-70 "/>
<text text-anchor="middle" x="215" y="-54.8" font-family="Times,serif" font-size="14.00">html</text>
<polyline fill="none" stroke="black" points="134,-47 236,-47 "/>
<text text-anchor="middle" x="185" y="-31.8" font-family="Times,serif" font-size="14.00">UpdateResume</text>
</g>
<!-- xOutputEl&#45;&gt;xUpdateResume -->
<g id="edge2" class="edge"><title>xOutputEl:OUTPUT_selection&#45;&gt;xUpdateResume:INPUT_element</title>
<path fill="none" stroke="black" d="M142,-118C142,-98.9001 157.087,-95.0193 162.274,-81.151"/>
<polygon fill="black" stroke="black" points="165.774,-81.4453 164,-71 158.873,-80.2716 165.774,-81.4453"/>
</g>
<!-- xEditorDefaults -->
<g id="node5" class="node"><title>xEditorDefaults</title>
<polygon fill="none" stroke="black" points="126,-319.5 126,-388.5 222,-388.5 222,-319.5 126,-319.5"/>
<text text-anchor="middle" x="174" y="-373.3" font-family="Times,serif" font-size="14.00">in</text>
<polyline fill="none" stroke="black" points="126,-365.5 222,-365.5 "/>
<text text-anchor="middle" x="174" y="-350.3" font-family="Times,serif" font-size="14.00">EditorDefaults</text>
<polyline fill="none" stroke="black" points="126,-342.5 222,-342.5 "/>
<text text-anchor="middle" x="174" y="-327.3" font-family="Times,serif" font-size="14.00">out</text>
</g>
<!-- xEditorDefaults&#45;&gt;xResumeEditor -->
<g id="edge3" class="edge"><title>xEditorDefaults:OUTPUT_out&#45;&gt;xResumeEditor:INPUT_options</title>
<path fill="none" stroke="black" d="M223,-331C231.341,-331 227.87,-308.219 225.952,-293.162"/>
<polygon fill="black" stroke="black" points="229.418,-292.63 225,-283 222.448,-293.283 229.418,-292.63"/>
</g>
<!-- xResumeView&#45;&gt;xUpdateResume -->
<g id="edge5" class="edge"><title>xResumeView:OUTPUT_out&#45;&gt;xUpdateResume:INPUT_html</title>
<path fill="none" stroke="black" d="M192,-119C186.648,-119 191.338,-112.087 193,-107 197.55,-93.0753 208.419,-90.3801 212.956,-80.926"/>
<polygon fill="black" stroke="black" points="216.411,-81.5005 215,-71 209.555,-80.0883 216.411,-81.5005"/>
</g>
<!-- xIIP0 -->
<g id="node8" class="node"><title>xIIP0</title>
<text text-anchor="middle" x="289" y="-350.3" font-family="Times,serif" font-size="14.00">[object Object]</text>
</g>
<!-- xIIP0&#45;&gt;xResumeEditor -->
<g id="edge7" class="edge"><title>xIIP0&#45;&gt;xResumeEditor:INPUT_schema</title>
<path fill="none" stroke="black" d="M286.697,-335.775C285.323,-324.28 283.741,-308.542 283.196,-293.361"/>
<polygon fill="black" stroke="black" points="286.689,-292.932 283,-283 279.69,-293.065 286.689,-292.932"/>
</g>
<!-- xIIP1 -->
<g id="node9" class="node"><title>xIIP1</title>
<text text-anchor="middle" x="405" y="-350.3" font-family="Times,serif" font-size="14.00">[object Object]</text>
</g>
<!-- xIIP1&#45;&gt;xResumeEditor -->
<g id="edge8" class="edge"><title>xIIP1&#45;&gt;xResumeEditor:INPUT_in</title>
<path fill="none" stroke="black" d="M399.861,-335.61C392.459,-314.172 376.697,-279.671 350.237,-272.38"/>
<polygon fill="black" stroke="black" points="350.378,-268.868 340,-271 349.443,-275.805 350.378,-268.868"/>
</g>
<!-- xIIP2 -->
<g id="node10" class="node"><title>xIIP2</title>
<text text-anchor="middle" x="174" y="-439.3" font-family="Times,serif" font-size="14.00">[object Object]</text>
</g>
<!-- xIIP2&#45;&gt;xEditorDefaults -->
<g id="edge9" class="edge"><title>xIIP2&#45;&gt;xEditorDefaults:INPUT_in</title>
<path fill="none" stroke="black" d="M174,-424.814C174,-417.278 174,-408.101 174,-399.058"/>
<polygon fill="black" stroke="black" points="177.5,-399 174,-389 170.5,-399 177.5,-399"/>
</g>
</g>
</svg>
