<?xml version="1.0" encoding="UTF-8" standalone="no"?>
<!DOCTYPE svg PUBLIC "-//W3C//DTD SVG 1.1//EN"
 "http://www.w3.org/Graphics/SVG/1.1/DTD/svg11.dtd">
<!-- Generated by graphviz version 2.36.0 (20140111.2315)
 -->
<!-- Title: structs Pages: 1 -->
<svg width="463pt" height="575pt"
 viewBox="0.00 0.00 463.00 575.00" xmlns="http://www.w3.org/2000/svg" xmlns:xlink="http://www.w3.org/1999/xlink">
<g id="graph0" class="graph" transform="scale(1 1) rotate(0) translate(4 571)">
<title>structs</title>
<polygon fill="white" stroke="none" points="-4,4 -4,-571 459,-571 459,4 -4,4"/>
<text text-anchor="middle" x="227.5" y="-7.8" font-family="Times,serif" font-size="14.00">Test JSON Editor</text>
<!-- xEditorEl -->
<g id="node1" class="node"><title>xEditorEl</title>
<polygon fill="none" stroke="black" points="0,-437 0,-483 108,-483 108,-437 0,-437"/>
<text text-anchor="middle" x="54" y="-467.8" font-family="Times,serif" font-size="14.00">EditorEl</text>
<polyline fill="none" stroke="black" points="0,-460 108,-460 "/>
<text text-anchor="middle" x="32.5" y="-444.8" font-family="Times,serif" font-size="14.00">selection</text>
<polyline fill="none" stroke="black" points="65,-437 65,-460 "/>
<text text-anchor="middle" x="86.5" y="-444.8" font-family="Times,serif" font-size="14.00">error</text>
</g>
<!-- xResumeEditor -->
<g id="node2" class="node"><title>xResumeEditor</title>
<polygon fill="none" stroke="black" points="137.5,-319.5 137.5,-388.5 338.5,-388.5 338.5,-319.5 137.5,-319.5"/>
<text text-anchor="middle" x="167.5" y="-373.3" font-family="Times,serif" font-size="14.00">element</text>
<polyline fill="none" stroke="black" points="197.5,-365.5 197.5,-388.5 "/>
<text text-anchor="middle" x="225.5" y="-373.3" font-family="Times,serif" font-size="14.00">options</text>
<polyline fill="none" stroke="black" points="253.5,-365.5 253.5,-388.5 "/>
<text text-anchor="middle" x="282.5" y="-373.3" font-family="Times,serif" font-size="14.00">schema</text>
<polyline fill="none" stroke="black" points="311.5,-365.5 311.5,-388.5 "/>
<text text-anchor="middle" x="325" y="-373.3" font-family="Times,serif" font-size="14.00">in</text>
<polyline fill="none" stroke="black" points="137.5,-365.5 338.5,-365.5 "/>
<text text-anchor="middle" x="238" y="-350.3" font-family="Times,serif" font-size="14.00">ResumeEditor</text>
<polyline fill="none" stroke="black" points="137.5,-342.5 338.5,-342.5 "/>
<text text-anchor="middle" x="238" y="-327.3" font-family="Times,serif" font-size="14.00">out</text>
</g>
<!-- xEditorEl&#45;&gt;xResumeEditor -->
<g id="edge1" class="edge"><title>xEditorEl:OUTPUT_selection&#45;&gt;xResumeEditor:INPUT_element</title>
<path fill="none" stroke="black" d="M32,-436C32,-390.48 85.7176,-415.118 123,-389 125.415,-387.308 126.741,-385.198 127.87,-383.221"/>
<polygon fill="black" stroke="black" points="130.185,-385.856 136,-377 125.931,-380.297 130.185,-385.856"/>
</g>
<!-- xLog -->
<g id="node8" class="node"><title>xLog</title>
<polygon fill="none" stroke="black" points="60,-331 60,-377 114,-377 114,-331 60,-331"/>
<text text-anchor="middle" x="87" y="-361.8" font-family="Times,serif" font-size="14.00">msg</text>
<polyline fill="none" stroke="black" points="60,-354 114,-354 "/>
<text text-anchor="middle" x="87" y="-338.8" font-family="Times,serif" font-size="14.00">Log</text>
</g>
<!-- xEditorEl&#45;&gt;xLog -->
<g id="edge7" class="edge"><title>xEditorEl:OUTPUT_error&#45;&gt;xLog:INPUT_msg</title>
<path fill="none" stroke="black" d="M87,-436C87,-414.049 87,-406.117 87,-388.328"/>
<polygon fill="black" stroke="black" points="90.5001,-388 87,-378 83.5001,-388 90.5001,-388"/>
</g>
<!-- xExtend -->
<g id="node6" class="node"><title>xExtend</title>
<polygon fill="none" stroke="black" points="288.5,-213.5 288.5,-282.5 367.5,-282.5 367.5,-213.5 288.5,-213.5"/>
<text text-anchor="middle" x="302" y="-267.3" font-family="Times,serif" font-size="14.00">in</text>
<polyline fill="none" stroke="black" points="315.5,-259.5 315.5,-282.5 "/>
<text text-anchor="middle" x="341.5" y="-267.3" font-family="Times,serif" font-size="14.00">source</text>
<polyline fill="none" stroke="black" points="288.5,-259.5 367.5,-259.5 "/>
<text text-anchor="middle" x="328" y="-244.3" font-family="Times,serif" font-size="14.00">Extend</text>
<polyline fill="none" stroke="black" points="288.5,-236.5 367.5,-236.5 "/>
<text text-anchor="middle" x="328" y="-221.3" font-family="Times,serif" font-size="14.00">out</text>
</g>
<!-- xResumeEditor&#45;&gt;xExtend -->
<g id="edge4" class="edge"><title>xResumeEditor:OUTPUT_out&#45;&gt;xExtend:INPUT_in</title>
<path fill="none" stroke="black" d="M340,-331C345.352,-331 341.285,-323.84 339,-319 330.964,-301.981 311.214,-304.098 304.376,-292.743"/>
<polygon fill="black" stroke="black" points="307.77,-291.886 302,-283 300.969,-293.545 307.77,-291.886"/>
</g>
<!-- xOutputEl -->
<g id="node3" class="node"><title>xOutputEl</title>
<polygon fill="none" stroke="black" points="199,-119 199,-165 265,-165 265,-119 199,-119"/>
<text text-anchor="middle" x="232" y="-149.8" font-family="Times,serif" font-size="14.00">OutputEl</text>
<polyline fill="none" stroke="black" points="199,-142 265,-142 "/>
<text text-anchor="middle" x="232" y="-126.8" font-family="Times,serif" font-size="14.00">selection</text>
</g>
<!-- xUpdateResume -->
<g id="node4" class="node"><title>xUpdateResume</title>
<polygon fill="none" stroke="black" points="224,-24 224,-70 326,-70 326,-24 224,-24"/>
<text text-anchor="middle" x="254" y="-54.8" font-family="Times,serif" font-size="14.00">element</text>
<polyline fill="none" stroke="black" points="284,-47 284,-70 "/>
<text text-anchor="middle" x="305" y="-54.8" font-family="Times,serif" font-size="14.00">html</text>
<polyline fill="none" stroke="black" points="224,-47 326,-47 "/>
<text text-anchor="middle" x="275" y="-31.8" font-family="Times,serif" font-size="14.00">UpdateResume</text>
</g>
<!-- xOutputEl&#45;&gt;xUpdateResume -->
<g id="edge2" class="edge"><title>xOutputEl:OUTPUT_selection&#45;&gt;xUpdateResume:INPUT_element</title>
<path fill="none" stroke="black" d="M232,-118C232,-98.9001 247.087,-95.0193 252.274,-81.151"/>
<polygon fill="black" stroke="black" points="255.774,-81.4453 254,-71 248.873,-80.2716 255.774,-81.4453"/>
</g>
<!-- xEditorDefaults -->
<g id="node5" class="node"><title>xEditorDefaults</title>
<polygon fill="none" stroke="black" points="126,-425.5 126,-494.5 222,-494.5 222,-425.5 126,-425.5"/>
<text text-anchor="middle" x="174" y="-479.3" font-family="Times,serif" font-size="14.00">in</text>
<polyline fill="none" stroke="black" points="126,-471.5 222,-471.5 "/>
<text text-anchor="middle" x="174" y="-456.3" font-family="Times,serif" font-size="14.00">EditorDefaults</text>
<polyline fill="none" stroke="black" points="126,-448.5 222,-448.5 "/>
<text text-anchor="middle" x="174" y="-433.3" font-family="Times,serif" font-size="14.00">out</text>
</g>
<!-- xEditorDefaults&#45;&gt;xResumeEditor -->
<g id="edge3" class="edge"><title>xEditorDefaults:OUTPUT_out&#45;&gt;xResumeEditor:INPUT_options</title>
<path fill="none" stroke="black" d="M223,-437C231.341,-437 227.87,-414.219 225.952,-399.162"/>
<polygon fill="black" stroke="black" points="229.418,-398.63 225,-389 222.448,-399.283 229.418,-398.63"/>
</g>
<!-- xResumeView -->
<g id="node7" class="node"><title>xResumeView</title>
<polygon fill="none" stroke="black" points="283,-107.5 283,-176.5 373,-176.5 373,-107.5 283,-107.5"/>
<text text-anchor="middle" x="328" y="-161.3" font-family="Times,serif" font-size="14.00">vars</text>
<polyline fill="none" stroke="black" points="283,-153.5 373,-153.5 "/>
<text text-anchor="middle" x="328" y="-138.3" font-family="Times,serif" font-size="14.00">ResumeView</text>
<polyline fill="none" stroke="black" points="283,-130.5 373,-130.5 "/>
<text text-anchor="middle" x="328" y="-115.3" font-family="Times,serif" font-size="14.00">out</text>
</g>
<!-- xExtend&#45;&gt;xResumeView -->
<g id="edge5" class="edge"><title>xExtend:OUTPUT_out&#45;&gt;xResumeView:INPUT_vars</title>
<path fill="none" stroke="black" d="M328,-213C328,-201 328,-195.75 328,-187.125"/>
<polygon fill="black" stroke="black" points="331.5,-187 328,-177 324.5,-187 331.5,-187"/>
</g>
<!-- xResumeView&#45;&gt;xUpdateResume -->
<g id="edge6" class="edge"><title>xResumeView:OUTPUT_out&#45;&gt;xUpdateResume:INPUT_html</title>
<path fill="none" stroke="black" d="M282,-119C276.648,-119 281.338,-112.087 283,-107 287.55,-93.0753 298.419,-90.3801 302.956,-80.926"/>
<polygon fill="black" stroke="black" points="306.411,-81.5005 305,-71 299.555,-80.0883 306.411,-81.5005"/>
</g>
<!-- xIIP0 -->
<g id="node9" class="node"><title>xIIP0</title>
<text text-anchor="middle" x="289" y="-456.3" font-family="Times,serif" font-size="14.00">[object Object]</text>
</g>
<!-- xIIP0&#45;&gt;xResumeEditor -->
<g id="edge8" class="edge"><title>xIIP0&#45;&gt;xResumeEditor:INPUT_schema</title>
<path fill="none" stroke="black" d="M286.697,-441.775C285.323,-430.28 283.741,-414.542 283.196,-399.361"/>
<polygon fill="black" stroke="black" points="286.689,-398.932 283,-389 279.69,-399.065 286.689,-398.932"/>
</g>
<!-- xIIP1 -->
<g id="node10" class="node"><title>xIIP1</title>
<text text-anchor="middle" x="406" y="-350.3" font-family="Times,serif" font-size="14.00">[object Object]</text>
</g>
<!-- xIIP1&#45;&gt;xExtend -->
<g id="edge9" class="edge"><title>xIIP1&#45;&gt;xExtend:INPUT_source</title>
<path fill="none" stroke="black" d="M405.586,-335.61C404.191,-314.642 398.797,-281.178 378.847,-272.899"/>
<polygon fill="black" stroke="black" points="379.482,-269.457 369,-271 378.156,-276.33 379.482,-269.457"/>
</g>
<!-- xIIP2 -->
<g id="node11" class="node"><title>xIIP2</title>
<text text-anchor="middle" x="405" y="-456.3" font-family="Times,serif" font-size="14.00">[object Object]</text>
</g>
<!-- xIIP2&#45;&gt;xResumeEditor -->
<g id="edge10" class="edge"><title>xIIP2&#45;&gt;xResumeEditor:INPUT_in</title>
<path fill="none" stroke="black" d="M390.238,-441.818C378.443,-427.867 361.679,-407.538 348,-389 347.108,-387.791 346.547,-386.49 346.128,-385.206"/>
<polygon fill="black" stroke="black" points="348.788,-382.918 340,-377 343.179,-387.107 348.788,-382.918"/>
</g>
<!-- xIIP3 -->
<g id="node12" class="node"><title>xIIP3</title>
<text text-anchor="middle" x="174" y="-545.3" font-family="Times,serif" font-size="14.00">[object Object]</text>
</g>
<!-- xIIP3&#45;&gt;xEditorDefaults -->
<g id="edge11" class="edge"><title>xIIP3&#45;&gt;xEditorDefaults:INPUT_in</title>
<path fill="none" stroke="black" d="M174,-530.814C174,-523.278 174,-514.101 174,-505.058"/>
<polygon fill="black" stroke="black" points="177.5,-505 174,-495 170.5,-505 177.5,-505"/>
</g>
</g>
</svg>
