<?xml version="1.0" encoding="UTF-8" standalone="no"?>
<!DOCTYPE svg PUBLIC "-//W3C//DTD SVG 1.1//EN"
 "http://www.w3.org/Graphics/SVG/1.1/DTD/svg11.dtd">
<!-- Generated by graphviz version 2.36.0 (20140111.2315)
 -->
<!-- Title: structs Pages: 1 -->
<svg width="571pt" height="481pt"
 viewBox="0.00 0.00 571.00 481.00" xmlns="http://www.w3.org/2000/svg" xmlns:xlink="http://www.w3.org/1999/xlink">
<g id="graph0" class="graph" transform="scale(1 1) rotate(0) translate(4 477)">
<title>structs</title>
<polygon fill="white" stroke="none" points="-4,4 -4,-477 567,-477 567,4 -4,4"/>
<text text-anchor="middle" x="281.5" y="-7.8" font-family="Times,serif" font-size="14.00">Protocol Selectbox</text>
<!-- xProtocolEl -->
<g id="node1" class="node"><title>xProtocolEl</title>
<polygon fill="none" stroke="black" points="314,-426 314,-472 388,-472 388,-426 314,-426"/>
<text text-anchor="middle" x="351" y="-456.8" font-family="Times,serif" font-size="14.00">ProtocolEl</text>
<polyline fill="none" stroke="black" points="314,-449 388,-449 "/>
<text text-anchor="middle" x="351" y="-433.8" font-family="Times,serif" font-size="14.00">selection</text>
</g>
<!-- xSelectProtocol -->
<g id="node2" class="node"><title>xSelectProtocol</title>
<polygon fill="none" stroke="black" points="303.5,-319.5 303.5,-388.5 398.5,-388.5 398.5,-319.5 303.5,-319.5"/>
<text text-anchor="middle" x="351" y="-373.3" font-family="Times,serif" font-size="14.00">element</text>
<polyline fill="none" stroke="black" points="303.5,-365.5 398.5,-365.5 "/>
<text text-anchor="middle" x="351" y="-350.3" font-family="Times,serif" font-size="14.00">SelectProtocol</text>
<polyline fill="none" stroke="black" points="303.5,-342.5 398.5,-342.5 "/>
<text text-anchor="middle" x="351" y="-327.3" font-family="Times,serif" font-size="14.00">out</text>
</g>
<!-- xProtocolEl&#45;&gt;xSelectProtocol -->
<g id="edge1" class="edge"><title>xProtocolEl:OUTPUT_selection&#45;&gt;xSelectProtocol:INPUT_element</title>
<path fill="none" stroke="black" d="M351,-425C351,-413 351,-407.75 351,-399.125"/>
<polygon fill="black" stroke="black" points="354.5,-399 351,-389 347.5,-399 354.5,-399"/>
</g>
<!-- xGraphCommands -->
<g id="node6" class="node"><title>xGraphCommands</title>
<polygon fill="none" stroke="black" points="289.5,-213.5 289.5,-282.5 402.5,-282.5 402.5,-213.5 289.5,-213.5"/>
<text text-anchor="middle" x="314.5" y="-267.3" font-family="Times,serif" font-size="14.00">in</text>
<polyline fill="none" stroke="black" points="339.5,-259.5 339.5,-282.5 "/>
<text text-anchor="middle" x="371" y="-267.3" font-family="Times,serif" font-size="14.00">start</text>
<polyline fill="none" stroke="black" points="289.5,-259.5 402.5,-259.5 "/>
<text text-anchor="middle" x="346" y="-244.3" font-family="Times,serif" font-size="14.00">GraphCommands</text>
<polyline fill="none" stroke="black" points="289.5,-236.5 402.5,-236.5 "/>
<text text-anchor="middle" x="346" y="-221.3" font-family="Times,serif" font-size="14.00">out</text>
</g>
<!-- xSelectProtocol&#45;&gt;xGraphCommands -->
<g id="edge11" class="edge"><title>xSelectProtocol:OUTPUT_out&#45;&gt;xGraphCommands:INPUT_start</title>
<path fill="none" stroke="black" d="M351,-319C351,-304.844 362.964,-301.999 368.385,-292.968"/>
<polygon fill="black" stroke="black" points="371.848,-293.561 371,-283 365.077,-291.785 371.848,-293.561"/>
</g>
<!-- xComponentCommands -->
<g id="node8" class="node"><title>xComponentCommands</title>
<polygon fill="none" stroke="black" points="420.5,-213.5 420.5,-282.5 563.5,-282.5 563.5,-213.5 420.5,-213.5"/>
<text text-anchor="middle" x="453" y="-267.3" font-family="Times,serif" font-size="14.00">in</text>
<polyline fill="none" stroke="black" points="485.5,-259.5 485.5,-282.5 "/>
<text text-anchor="middle" x="524.5" y="-267.3" font-family="Times,serif" font-size="14.00">start</text>
<polyline fill="none" stroke="black" points="420.5,-259.5 563.5,-259.5 "/>
<text text-anchor="middle" x="492" y="-244.3" font-family="Times,serif" font-size="14.00">ComponentCommands</text>
<polyline fill="none" stroke="black" points="420.5,-236.5 563.5,-236.5 "/>
<text text-anchor="middle" x="492" y="-221.3" font-family="Times,serif" font-size="14.00">out</text>
</g>
<!-- xSelectProtocol&#45;&gt;xComponentCommands -->
<g id="edge12" class="edge"><title>xSelectProtocol:OUTPUT_out&#45;&gt;xComponentCommands:INPUT_start</title>
<path fill="none" stroke="black" d="M400,-331C426.385,-331 504.262,-316.655 521.567,-292.659"/>
<polygon fill="black" stroke="black" points="524.949,-293.595 525,-283 518.353,-291.25 524.949,-293.595"/>
</g>
<!-- xNetworkCommands -->
<g id="node9" class="node"><title>xNetworkCommands</title>
<polygon fill="none" stroke="black" points="-0.5,-213.5 -0.5,-282.5 126.5,-282.5 126.5,-213.5 -0.5,-213.5"/>
<text text-anchor="middle" x="28" y="-267.3" font-family="Times,serif" font-size="14.00">in</text>
<polyline fill="none" stroke="black" points="56.5,-259.5 56.5,-282.5 "/>
<text text-anchor="middle" x="91.5" y="-267.3" font-family="Times,serif" font-size="14.00">start</text>
<polyline fill="none" stroke="black" points="-0.5,-259.5 126.5,-259.5 "/>
<text text-anchor="middle" x="63" y="-244.3" font-family="Times,serif" font-size="14.00">NetworkCommands</text>
<polyline fill="none" stroke="black" points="-0.5,-236.5 126.5,-236.5 "/>
<text text-anchor="middle" x="63" y="-221.3" font-family="Times,serif" font-size="14.00">out</text>
</g>
<!-- xSelectProtocol&#45;&gt;xNetworkCommands -->
<g id="edge13" class="edge"><title>xSelectProtocol:OUTPUT_out&#45;&gt;xNetworkCommands:INPUT_start</title>
<path fill="none" stroke="black" d="M302,-331C297.173,-331 138.809,-285.964 135,-283 133.934,-282.171 133.295,-281.13 132.882,-280.01"/>
<polygon fill="black" stroke="black" points="135.842,-278.125 128,-271 129.687,-281.46 135.842,-278.125"/>
</g>
<!-- xRuntimeCommands -->
<g id="node10" class="node"><title>xRuntimeCommands</title>
<polygon fill="none" stroke="black" points="144.5,-213.5 144.5,-282.5 271.5,-282.5 271.5,-213.5 144.5,-213.5"/>
<text text-anchor="middle" x="173" y="-267.3" font-family="Times,serif" font-size="14.00">in</text>
<polyline fill="none" stroke="black" points="201.5,-259.5 201.5,-282.5 "/>
<text text-anchor="middle" x="236.5" y="-267.3" font-family="Times,serif" font-size="14.00">start</text>
<polyline fill="none" stroke="black" points="144.5,-259.5 271.5,-259.5 "/>
<text text-anchor="middle" x="208" y="-244.3" font-family="Times,serif" font-size="14.00">RuntimeCommands</text>
<polyline fill="none" stroke="black" points="144.5,-236.5 271.5,-236.5 "/>
<text text-anchor="middle" x="208" y="-221.3" font-family="Times,serif" font-size="14.00">out</text>
</g>
<!-- xSelectProtocol&#45;&gt;xRuntimeCommands -->
<g id="edge14" class="edge"><title>xSelectProtocol:OUTPUT_out&#45;&gt;xRuntimeCommands:INPUT_start</title>
<path fill="none" stroke="black" d="M302,-331C299.18,-331 285.978,-296.187 278.21,-279.597"/>
<polygon fill="black" stroke="black" points="281.176,-277.738 273,-271 275.19,-281.366 281.176,-277.738"/>
</g>
<!-- xCommandEl -->
<g id="node3" class="node"><title>xCommandEl</title>
<polygon fill="none" stroke="black" points="63,-119 63,-165 149,-165 149,-119 63,-119"/>
<text text-anchor="middle" x="106" y="-149.8" font-family="Times,serif" font-size="14.00">CommandEl</text>
<polyline fill="none" stroke="black" points="63,-142 149,-142 "/>
<text text-anchor="middle" x="106" y="-126.8" font-family="Times,serif" font-size="14.00">selection</text>
</g>
<!-- xSelectCommand -->
<g id="node4" class="node"><title>xSelectCommand</title>
<polygon fill="none" stroke="black" points="106,-24 106,-70 222,-70 222,-24 106,-24"/>
<text text-anchor="middle" x="136" y="-54.8" font-family="Times,serif" font-size="14.00">element</text>
<polyline fill="none" stroke="black" points="166,-47 166,-70 "/>
<text text-anchor="middle" x="194" y="-54.8" font-family="Times,serif" font-size="14.00">options</text>
<polyline fill="none" stroke="black" points="106,-47 222,-47 "/>
<text text-anchor="middle" x="164" y="-31.8" font-family="Times,serif" font-size="14.00">SelectCommand</text>
</g>
<!-- xCommandEl&#45;&gt;xSelectCommand -->
<g id="edge2" class="edge"><title>xCommandEl:OUTPUT_selection&#45;&gt;xSelectCommand:INPUT_element</title>
<path fill="none" stroke="black" d="M150,-130C155.352,-130 149.94,-123.269 149,-118 145.878,-100.497 139.13,-94.6673 136.806,-81.1736"/>
<polygon fill="black" stroke="black" points="140.279,-80.6923 136,-71 133.301,-81.2452 140.279,-80.6923"/>
</g>
<!-- xProtocolSchemas -->
<g id="node5" class="node"><title>xProtocolSchemas</title>
<polygon fill="none" stroke="black" points="136.5,-319.5 136.5,-388.5 247.5,-388.5 247.5,-319.5 136.5,-319.5"/>
<text text-anchor="middle" x="192" y="-373.3" font-family="Times,serif" font-size="14.00">in</text>
<polyline fill="none" stroke="black" points="136.5,-365.5 247.5,-365.5 "/>
<text text-anchor="middle" x="192" y="-350.3" font-family="Times,serif" font-size="14.00">ProtocolSchemas</text>
<polyline fill="none" stroke="black" points="136.5,-342.5 247.5,-342.5 "/>
<text text-anchor="middle" x="192" y="-327.3" font-family="Times,serif" font-size="14.00">out</text>
</g>
<!-- xProtocolSchemas&#45;&gt;xGraphCommands -->
<g id="edge3" class="edge"><title>xProtocolSchemas:OUTPUT_out&#45;&gt;xGraphCommands:INPUT_in</title>
<path fill="none" stroke="black" d="M249,-331C249.38,-331 271.748,-295.829 282.435,-279.343"/>
<polygon fill="black" stroke="black" points="285.363,-281.261 288,-271 279.539,-277.377 285.363,-281.261"/>
</g>
<!-- xProtocolSchemas&#45;&gt;xComponentCommands -->
<g id="edge5" class="edge"><title>xProtocolSchemas:OUTPUT_out&#45;&gt;xComponentCommands:INPUT_in</title>
<path fill="none" stroke="black" d="M249,-331C253.693,-331 407.223,-285.786 411,-283 412.29,-282.049 413.034,-280.823 413.525,-279.52"/>
<polygon fill="black" stroke="black" points="416.538,-281.305 419,-271 410.649,-277.521 416.538,-281.305"/>
</g>
<!-- xProtocolSchemas&#45;&gt;xNetworkCommands -->
<g id="edge7" class="edge"><title>xProtocolSchemas:OUTPUT_out&#45;&gt;xNetworkCommands:INPUT_in</title>
<path fill="none" stroke="black" d="M135,-331C112.197,-331 47.3773,-314.203 31.5288,-292.545"/>
<polygon fill="black" stroke="black" points="34.7506,-291.166 28,-283 28.1849,-293.593 34.7506,-291.166"/>
</g>
<!-- xProtocolSchemas&#45;&gt;xRuntimeCommands -->
<g id="edge9" class="edge"><title>xProtocolSchemas:OUTPUT_out&#45;&gt;xRuntimeCommands:INPUT_in</title>
<path fill="none" stroke="black" d="M192,-319C192,-305.007 180.634,-301.947 175.484,-292.908"/>
<polygon fill="black" stroke="black" points="178.827,-291.849 173,-283 172.037,-293.551 178.827,-291.849"/>
</g>
<!-- xLog -->
<g id="node7" class="node"><title>xLog</title>
<polygon fill="none" stroke="black" points="310,-119 310,-165 364,-165 364,-119 310,-119"/>
<text text-anchor="middle" x="337" y="-149.8" font-family="Times,serif" font-size="14.00">msg</text>
<polyline fill="none" stroke="black" points="310,-142 364,-142 "/>
<text text-anchor="middle" x="337" y="-126.8" font-family="Times,serif" font-size="14.00">Log</text>
</g>
<!-- xGraphCommands&#45;&gt;xLog -->
<g id="edge4" class="edge"><title>xGraphCommands:OUTPUT_out&#45;&gt;xLog:INPUT_msg</title>
<path fill="none" stroke="black" d="M346,-213C346,-195.553 339.944,-189.415 337.767,-176.032"/>
<polygon fill="black" stroke="black" points="341.253,-175.704 337,-166 334.273,-176.238 341.253,-175.704"/>
</g>
<!-- xPrepareCommand -->
<g id="node11" class="node"><title>xPrepareCommand</title>
<polygon fill="none" stroke="black" points="167,-107.5 167,-176.5 283,-176.5 283,-107.5 167,-107.5"/>
<text text-anchor="middle" x="225" y="-161.3" font-family="Times,serif" font-size="14.00">in</text>
<polyline fill="none" stroke="black" points="167,-153.5 283,-153.5 "/>
<text text-anchor="middle" x="225" y="-138.3" font-family="Times,serif" font-size="14.00">PrepareCommand</text>
<polyline fill="none" stroke="black" points="167,-130.5 283,-130.5 "/>
<text text-anchor="middle" x="225" y="-115.3" font-family="Times,serif" font-size="14.00">out</text>
</g>
<!-- xGraphCommands&#45;&gt;xPrepareCommand -->
<g id="edge15" class="edge"><title>xGraphCommands:OUTPUT_out&#45;&gt;xPrepareCommand:INPUT_in</title>
<path fill="none" stroke="black" d="M288,-225C277.926,-225 288.363,-190.898 288.384,-174.113"/>
<polygon fill="black" stroke="black" points="291.49,-172.494 284,-165 285.182,-175.529 291.49,-172.494"/>
</g>
<!-- xComponentCommands&#45;&gt;xLog -->
<g id="edge6" class="edge"><title>xComponentCommands:OUTPUT_out&#45;&gt;xLog:INPUT_msg</title>
<path fill="none" stroke="black" d="M419,-225C412.59,-225 414.751,-218.198 411,-213 393.823,-189.197 397.037,-161.439 375.15,-155.26"/>
<polygon fill="black" stroke="black" points="375.355,-151.759 365,-154 374.493,-158.706 375.355,-151.759"/>
</g>
<!-- xComponentCommands&#45;&gt;xPrepareCommand -->
<g id="edge17" class="edge"><title>xComponentCommands:OUTPUT_out&#45;&gt;xPrepareCommand:INPUT_in</title>
<path fill="none" stroke="black" d="M419,-225C412.59,-225 416.105,-216.877 411,-213 370.035,-181.888 346.968,-200.089 301,-177 297.126,-175.054 295.181,-172.296 293.255,-169.914"/>
<polygon fill="black" stroke="black" points="294.474,-166.599 284,-165 291.191,-172.781 294.474,-166.599"/>
</g>
<!-- xNetworkCommands&#45;&gt;xLog -->
<g id="edge8" class="edge"><title>xNetworkCommands:OUTPUT_out&#45;&gt;xLog:INPUT_msg</title>
<path fill="none" stroke="black" d="M128,-225C134.174,-225 130.028,-216.661 135,-213 192.295,-170.806 230.971,-215.204 291,-177 297.844,-172.644 298.094,-164.749 300.488,-159.44"/>
<polygon fill="black" stroke="black" points="302.458,-162.334 309,-154 298.689,-156.436 302.458,-162.334"/>
</g>
<!-- xNetworkCommands&#45;&gt;xPrepareCommand -->
<g id="edge16" class="edge"><title>xNetworkCommands:OUTPUT_out&#45;&gt;xPrepareCommand:INPUT_in</title>
<path fill="none" stroke="black" d="M128,-225C134.174,-225 131.769,-218.261 135,-213 135.151,-212.754 151.238,-187.527 160.176,-173.749"/>
<polygon fill="black" stroke="black" points="163.372,-175.264 166,-165 157.545,-171.385 163.372,-175.264"/>
</g>
<!-- xRuntimeCommands&#45;&gt;xLog -->
<g id="edge10" class="edge"><title>xRuntimeCommands:OUTPUT_out&#45;&gt;xLog:INPUT_msg</title>
<path fill="none" stroke="black" d="M273,-225C274.728,-225 294.379,-181.665 303.948,-162.706"/>
<polygon fill="black" stroke="black" points="307.008,-164.406 309,-154 300.954,-160.893 307.008,-164.406"/>
</g>
<!-- xRuntimeCommands&#45;&gt;xPrepareCommand -->
<g id="edge18" class="edge"><title>xRuntimeCommands:OUTPUT_out&#45;&gt;xPrepareCommand:INPUT_in</title>
<path fill="none" stroke="black" d="M208,-213C208,-199.315 218.169,-195.848 222.778,-186.793"/>
<polygon fill="black" stroke="black" points="226.2,-187.527 225,-177 219.374,-185.977 226.2,-187.527"/>
</g>
<!-- xPrepareCommand&#45;&gt;xSelectCommand -->
<g id="edge19" class="edge"><title>xPrepareCommand:OUTPUT_out&#45;&gt;xSelectCommand:INPUT_options</title>
<path fill="none" stroke="black" d="M166,-119C160.648,-119 165.098,-112.002 167,-107 172.608,-92.2489 186.177,-90.815 191.651,-81.0407"/>
<polygon fill="black" stroke="black" points="195.13,-81.5344 194,-71 188.314,-79.94 195.13,-81.5344"/>
</g>
<!-- xIIP0 -->
<g id="node12" class="node"><title>xIIP0</title>
<text text-anchor="middle" x="192" y="-445.3" font-family="Times,serif" font-size="14.00">[object Object]</text>
</g>
<!-- xIIP0&#45;&gt;xProtocolSchemas -->
<g id="edge20" class="edge"><title>xIIP0&#45;&gt;xProtocolSchemas:INPUT_in</title>
<path fill="none" stroke="black" d="M192,-430.96C192,-421.938 192,-410.421 192,-399.174"/>
<polygon fill="black" stroke="black" points="195.5,-399 192,-389 188.5,-399 195.5,-399"/>
</g>
</g>
</svg>
