<?xml version="1.0" encoding="UTF-8" standalone="no"?>
<!DOCTYPE svg PUBLIC "-//W3C//DTD SVG 1.1//EN"
 "http://www.w3.org/Graphics/SVG/1.1/DTD/svg11.dtd">
<!-- Generated by graphviz version 2.36.0 (20140111.2315)
 -->
<!-- Title: structs Pages: 1 -->
<svg width="483pt" height="397pt"
 viewBox="0.00 0.00 483.00 397.00" xmlns="http://www.w3.org/2000/svg" xmlns:xlink="http://www.w3.org/1999/xlink">
<g id="graph0" class="graph" transform="scale(1 1) rotate(0) translate(4 393)">
<title>structs</title>
<polygon fill="white" stroke="none" points="-4,4 -4,-393 479,-393 479,4 -4,4"/>
<text text-anchor="middle" x="237.5" y="-7.8" font-family="Times,serif" font-size="14.00">Protocol Selectbox</text>
<!-- xProtocolEl -->
<g id="node1" class="node"><title>xProtocolEl</title>
<polygon fill="none" stroke="black" points="149,-342 149,-388 223,-388 223,-342 149,-342"/>
<text text-anchor="middle" x="186" y="-372.8" font-family="Times,serif" font-size="14.00">ProtocolEl</text>
<polyline fill="none" stroke="black" points="149,-365 223,-365 "/>
<text text-anchor="middle" x="186" y="-349.8" font-family="Times,serif" font-size="14.00">selection</text>
</g>
<!-- xSelectProtocol -->
<g id="node2" class="node"><title>xSelectProtocol</title>
<polygon fill="none" stroke="black" points="138.5,-235.5 138.5,-304.5 233.5,-304.5 233.5,-235.5 138.5,-235.5"/>
<text text-anchor="middle" x="186" y="-289.3" font-family="Times,serif" font-size="14.00">element</text>
<polyline fill="none" stroke="black" points="138.5,-281.5 233.5,-281.5 "/>
<text text-anchor="middle" x="186" y="-266.3" font-family="Times,serif" font-size="14.00">SelectProtocol</text>
<polyline fill="none" stroke="black" points="138.5,-258.5 233.5,-258.5 "/>
<text text-anchor="middle" x="186" y="-243.3" font-family="Times,serif" font-size="14.00">out</text>
</g>
<!-- xProtocolEl&#45;&gt;xSelectProtocol -->
<g id="edge1" class="edge"><title>xProtocolEl:OUTPUT_selection&#45;&gt;xSelectProtocol:INPUT_element</title>
<path fill="none" stroke="black" d="M186,-341C186,-329 186,-323.75 186,-315.125"/>
<polygon fill="black" stroke="black" points="189.5,-315 186,-305 182.5,-315 189.5,-315"/>
</g>
<!-- xClearCommands -->
<g id="node7" class="node"><title>xClearCommands</title>
<polygon fill="none" stroke="black" points="41.5,-141 41.5,-187 150.5,-187 150.5,-141 41.5,-141"/>
<text text-anchor="middle" x="73.5" y="-171.8" font-family="Times,serif" font-size="14.00">element</text>
<polyline fill="none" stroke="black" points="105.5,-164 105.5,-187 "/>
<text text-anchor="middle" x="128" y="-171.8" font-family="Times,serif" font-size="14.00">start</text>
<polyline fill="none" stroke="black" points="41.5,-164 150.5,-164 "/>
<text text-anchor="middle" x="96" y="-148.8" font-family="Times,serif" font-size="14.00">ClearCommands</text>
</g>
<!-- xSelectProtocol&#45;&gt;xClearCommands -->
<g id="edge7" class="edge"><title>xSelectProtocol:OUTPUT_out&#45;&gt;xClearCommands:INPUT_start</title>
<path fill="none" stroke="black" d="M137,-247C113.79,-247 124.307,-222.137 127.299,-198.151"/>
<polygon fill="black" stroke="black" points="130.802,-198.217 128,-188 123.819,-197.735 130.802,-198.217"/>
</g>
<!-- xClearEditor -->
<g id="node8" class="node"><title>xClearEditor</title>
<polygon fill="none" stroke="black" points="301,-141 301,-187 401,-187 401,-141 301,-141"/>
<text text-anchor="middle" x="331" y="-171.8" font-family="Times,serif" font-size="14.00">element</text>
<polyline fill="none" stroke="black" points="361,-164 361,-187 "/>
<text text-anchor="middle" x="381" y="-171.8" font-family="Times,serif" font-size="14.00">start</text>
<polyline fill="none" stroke="black" points="301,-164 401,-164 "/>
<text text-anchor="middle" x="351" y="-148.8" font-family="Times,serif" font-size="14.00">ClearEditor</text>
</g>
<!-- xSelectProtocol&#45;&gt;xClearEditor -->
<g id="edge8" class="edge"><title>xSelectProtocol:OUTPUT_out&#45;&gt;xClearEditor:INPUT_start</title>
<path fill="none" stroke="black" d="M235,-247C266.576,-247 360.044,-227.453 377.998,-197.926"/>
<polygon fill="black" stroke="black" points="381.455,-198.585 381,-188 374.755,-196.559 381.455,-198.585"/>
</g>
<!-- xGraphCommands -->
<g id="node9" class="node"><title>xGraphCommands</title>
<polygon fill="none" stroke="black" points="169,-129.5 169,-198.5 283,-198.5 283,-129.5 169,-129.5"/>
<text text-anchor="middle" x="186.5" y="-183.3" font-family="Times,serif" font-size="14.00">in</text>
<polyline fill="none" stroke="black" points="204,-175.5 204,-198.5 "/>
<text text-anchor="middle" x="243.5" y="-183.3" font-family="Times,serif" font-size="14.00">command</text>
<polyline fill="none" stroke="black" points="169,-175.5 283,-175.5 "/>
<text text-anchor="middle" x="226" y="-160.3" font-family="Times,serif" font-size="14.00">GraphCommands</text>
<polyline fill="none" stroke="black" points="169,-152.5 283,-152.5 "/>
<text text-anchor="middle" x="197" y="-137.3" font-family="Times,serif" font-size="14.00">options</text>
<polyline fill="none" stroke="black" points="225,-129.5 225,-152.5 "/>
<text text-anchor="middle" x="254" y="-137.3" font-family="Times,serif" font-size="14.00">schema</text>
</g>
<!-- xSelectProtocol&#45;&gt;xGraphCommands -->
<g id="edge6" class="edge"><title>xSelectProtocol:OUTPUT_out&#45;&gt;xGraphCommands:INPUT_in</title>
<path fill="none" stroke="black" d="M186,-235C186,-223 186,-217.75 186,-209.125"/>
<polygon fill="black" stroke="black" points="189.5,-209 186,-199 182.5,-209 189.5,-209"/>
</g>
<!-- xCommandEl -->
<g id="node3" class="node"><title>xCommandEl</title>
<polygon fill="none" stroke="black" points="0,-247 0,-293 86,-293 86,-247 0,-247"/>
<text text-anchor="middle" x="43" y="-277.8" font-family="Times,serif" font-size="14.00">CommandEl</text>
<polyline fill="none" stroke="black" points="0,-270 86,-270 "/>
<text text-anchor="middle" x="43" y="-254.8" font-family="Times,serif" font-size="14.00">selection</text>
</g>
<!-- xSelectCommand -->
<g id="node4" class="node"><title>xSelectCommand</title>
<polygon fill="none" stroke="black" points="101,-23.5 101,-92.5 217,-92.5 217,-23.5 101,-23.5"/>
<text text-anchor="middle" x="131" y="-77.3" font-family="Times,serif" font-size="14.00">element</text>
<polyline fill="none" stroke="black" points="161,-69.5 161,-92.5 "/>
<text text-anchor="middle" x="189" y="-77.3" font-family="Times,serif" font-size="14.00">options</text>
<polyline fill="none" stroke="black" points="101,-69.5 217,-69.5 "/>
<text text-anchor="middle" x="159" y="-54.3" font-family="Times,serif" font-size="14.00">SelectCommand</text>
<polyline fill="none" stroke="black" points="101,-46.5 217,-46.5 "/>
<text text-anchor="middle" x="159" y="-31.3" font-family="Times,serif" font-size="14.00">out</text>
</g>
<!-- xCommandEl&#45;&gt;xSelectCommand -->
<g id="edge2" class="edge"><title>xCommandEl:OUTPUT_selection&#45;&gt;xSelectCommand:INPUT_element</title>
<path fill="none" stroke="black" d="M43,-246C43,-224.547 34.4607,-220.312 32,-199 28.4316,-168.094 17.6869,-156.623 32,-129 47.3572,-99.3619 60.246,-84.1285 89.7961,-81.4359"/>
<polygon fill="black" stroke="black" points="90.1585,-84.9237 100,-81 89.8597,-77.9301 90.1585,-84.9237"/>
</g>
<!-- xCommandEl&#45;&gt;xClearCommands -->
<g id="edge4" class="edge"><title>xCommandEl:OUTPUT_selection&#45;&gt;xClearCommands:INPUT_element</title>
<path fill="none" stroke="black" d="M87,-258C92.3518,-258 86.8094,-251.29 86,-246 82.5666,-223.559 75.4335,-216.364 73.4952,-198.018"/>
<polygon fill="black" stroke="black" points="76.9896,-197.815 73,-188 69.9981,-198.161 76.9896,-197.815"/>
</g>
<!-- xSelectCommand&#45;&gt;xGraphCommands -->
<g id="edge10" class="edge"><title>xSelectCommand:OUTPUT_out&#45;&gt;xGraphCommands:INPUT_command</title>
<path fill="none" stroke="black" d="M218,-35C231.011,-35 218.954,-82.0621 226,-93 242.226,-118.189 268.537,-102.759 283,-129 290.509,-142.623 293.858,-187.86 283,-199 274.018,-208.216 256.886,-213.854 248.649,-209.06"/>
<polygon fill="black" stroke="black" points="251.68,-207.299 244,-200 245.452,-210.495 251.68,-207.299"/>
</g>
<!-- xEditorEl -->
<g id="node5" class="node"><title>xEditorEl</title>
<polygon fill="none" stroke="black" points="347.5,-247 347.5,-293 412.5,-293 412.5,-247 347.5,-247"/>
<text text-anchor="middle" x="380" y="-277.8" font-family="Times,serif" font-size="14.00">EditorEl</text>
<polyline fill="none" stroke="black" points="347.5,-270 412.5,-270 "/>
<text text-anchor="middle" x="380" y="-254.8" font-family="Times,serif" font-size="14.00">selection</text>
</g>
<!-- xCommandEditor -->
<g id="node6" class="node"><title>xCommandEditor</title>
<polygon fill="none" stroke="black" points="357,-35 357,-81 475,-81 475,-35 357,-35"/>
<text text-anchor="middle" x="387" y="-65.8" font-family="Times,serif" font-size="14.00">element</text>
<polyline fill="none" stroke="black" points="417,-58 417,-81 "/>
<text text-anchor="middle" x="446" y="-65.8" font-family="Times,serif" font-size="14.00">schema</text>
<polyline fill="none" stroke="black" points="357,-58 475,-58 "/>
<text text-anchor="middle" x="416" y="-42.8" font-family="Times,serif" font-size="14.00">CommandEditor</text>
</g>
<!-- xEditorEl&#45;&gt;xCommandEditor -->
<g id="edge3" class="edge"><title>xEditorEl:OUTPUT_selection&#45;&gt;xCommandEditor:INPUT_element</title>
<path fill="none" stroke="black" d="M380,-246C380,-221.218 403.055,-222.788 410,-199 418.719,-169.136 417.018,-159.309 410,-129 405.655,-110.238 392.733,-106.267 388.42,-92.2488"/>
<polygon fill="black" stroke="black" points="391.839,-91.4251 387,-82 384.905,-92.3857 391.839,-91.4251"/>
</g>
<!-- xEditorEl&#45;&gt;xClearEditor -->
<g id="edge5" class="edge"><title>xEditorEl:OUTPUT_selection&#45;&gt;xClearEditor:INPUT_element</title>
<path fill="none" stroke="black" d="M380,-246C380,-216.077 341.473,-220.15 332.744,-197.929"/>
<polygon fill="black" stroke="black" points="336.177,-197.244 331,-188 329.283,-198.455 336.177,-197.244"/>
</g>
<!-- xGraphCommands&#45;&gt;xSelectCommand -->
<g id="edge9" class="edge"><title>xGraphCommands:OUTPUT_options&#45;&gt;xSelectCommand:INPUT_options</title>
<path fill="none" stroke="black" d="M197,-129C197,-116.579 192.406,-111.722 190.18,-102.965"/>
<polygon fill="black" stroke="black" points="193.652,-102.519 189,-93 186.701,-103.342 193.652,-102.519"/>
</g>
<!-- xGraphCommands&#45;&gt;xCommandEditor -->
<g id="edge11" class="edge"><title>xGraphCommands:OUTPUT_schema&#45;&gt;xCommandEditor:INPUT_schema</title>
<path fill="none" stroke="black" d="M284,-141C290.41,-141 286.857,-132.825 292,-129 346.392,-88.5446 435.923,-146.772 445.214,-92.1995"/>
<polygon fill="black" stroke="black" points="448.721,-92.2393 446,-82 441.742,-91.7016 448.721,-92.2393"/>
</g>
<!-- xLog -->
<g id="node10" class="node"><title>xLog</title>
<polygon fill="none" stroke="black" points="235,-35 235,-81 289,-81 289,-35 235,-35"/>
<text text-anchor="middle" x="262" y="-65.8" font-family="Times,serif" font-size="14.00">msg</text>
<polyline fill="none" stroke="black" points="235,-58 289,-58 "/>
<text text-anchor="middle" x="262" y="-42.8" font-family="Times,serif" font-size="14.00">Log</text>
</g>
<!-- xGraphCommands&#45;&gt;xLog -->
<g id="edge12" class="edge"><title>xGraphCommands:OUTPUT_schema&#45;&gt;xLog:INPUT_msg</title>
<path fill="none" stroke="black" d="M254,-129C254,-111.618 259.383,-105.385 261.318,-92.0098"/>
<polygon fill="black" stroke="black" points="264.812,-92.2148 262,-82 257.828,-91.7389 264.812,-92.2148"/>
</g>
</g>
</svg>
